<svg id="Слой_1" data-name="Слой 1" xmlns="http://www.w3.org/2000/svg" viewBox="0 0 32 32">
  <defs>
    <style>
      .cls-1{fill:#f68e1e;}.cls-1,.cls-2,.cls-3{stroke:#362f8a;stroke-miterlimit:10;stroke-width:0.5px;}.cls-2,.cls-4{fill:#362f8a;}.cls-3{fill:none;}.cls-5{fill:#fff;}
    </style>
  </defs>
  <path class="cls-1"
        d="M9.08,15A5.77,5.77,0,0,1,6.29,8.74a.14.14,0,0,0,0-.09.52.52,0,0,0-.51.25,5.89,5.89,0,0,0,2,7.63A2.07,2.07,0,0,1,9.08,15Z"/>
  <path class="cls-2" d="M21.24,25H19.71l.66,5h1a.39.39,0,0,0,.38-.49Z"/>
  <path class="cls-2"
        d="M10,29.36a.89.89,0,0,1-.82.64H11.1a.9.9,0,0,0,.71-.63c.42-1.37.88-3.46,1.9-4.36H11.88C10.86,25.9,10.39,28,10,29.36Z"/>
  <path class="cls-1" d="M19.93,25H16.45c1,.9,1.38,3,1.79,4.36a.89.89,0,0,0,.85.64h1a.39.39,0,0,0,.37-.49Z"/>
  <path class="cls-1" d="M8.5,24.31l-1.38,5.2A.39.39,0,0,0,7.5,30H9.05a.9.9,0,0,0,.85-.64c.41-1.37.87-3.46,1.9-4.36Z"/>
  <path class="cls-1"
        d="M19.54,23h0a10.83,10.83,0,0,1-.4-3,10.91,10.91,0,0,1,.4-3h0a3.08,3.08,0,0,1,1.11-1.84.84.84,0,0,1,.47-.15H9a.6.6,0,0,0-.18.07c-1,.4-1.71,2.3-1.77,4.64v0s0,.55,0,.56c.06,2.34.8,4.25,1.77,4.64A.51.51,0,0,0,9,25H21.12a.84.84,0,0,1-.47-.15A3.08,3.08,0,0,1,19.54,23Z"/>
  <path class="cls-3" d="M21.2,16a8.24,8.24,0,0,1,.72,4,8.24,8.24,0,0,1-.72,4"/>
  <path class="cls-1"
        d="M27.48,8.35c0-1.09-.91-1.72-2-2a50.43,50.43,0,0,0-4.89-1.29c-.2,0-.51,0-.87-.06a35,35,0,0,1-2.17-2.91.24.24,0,0,0-.43,0,12.7,12.7,0,0,0-.42,2.49,5.21,5.21,0,0,0,0,.79h0l-.49.21a11.55,11.55,0,0,1-3.34-2.58.23.23,0,0,0-.4.15v.65a11.71,11.71,0,0,0,1.2,5.18l0,.26A4.33,4.33,0,0,0,15,12.69l.05.05a5,5,0,0,0,3.39,1.33h3.42A4.9,4.9,0,0,0,25.2,12.8,7.24,7.24,0,0,0,26.61,11a7.63,7.63,0,0,0,.78-2.06,2,2,0,0,0,.08-.43V8.35Zm-1.31,1a.37.37,0,0,1-.27.16h-.2a2.71,2.71,0,0,1-1.27-.31.38.38,0,0,1-.12-.57,2.83,2.83,0,0,1,2.05-1.12.32.32,0,0,1,.33.32A2.79,2.79,0,0,1,26.17,9.39Z"/>
  <path class="cls-4"
        d="M26.17,9.39a.37.37,0,0,1-.27.16h-.2a2.71,2.71,0,0,1-1.27-.31.38.38,0,0,1-.12-.57,2.83,2.83,0,0,1,2.05-1.12.32.32,0,0,1,.33.32A2.79,2.79,0,0,1,26.17,9.39Z"/>
  <path class="cls-5" d="M18.08,17.3H16.9a.39.39,0,1,1,0-.77h1.18a.39.39,0,1,1,0,.77Z"/>
  <path class="cls-5" d="M14,17.3H12.83a.39.39,0,0,1,0-.77H14a.39.39,0,1,1,0,.77Z"/>
  <path class="cls-5" d="M10.08,17.3H8.9a.39.39,0,1,1,0-.77h1.18a.39.39,0,0,1,0,.77Z"/>
  <path class="cls-2" d="M17.58,2.12a.23.23,0,0,0-.42,0,19.77,19.77,0,0,0-.45,3.28,7.88,7.88,0,0,1,3-.42A21.15,21.15,0,0,1,17.58,2.12Z"/>
  <path class="cls-3" d="M17.16,15A.51.51,0,0,0,17,15c-1,.4-1.72,2.3-1.78,4.64v.61c.06,2.34.81,4.25,1.78,4.64a.44.44,0,0,0,.17.08"/>
  <path class="cls-3" d="M12.78,15a.6.6,0,0,0-.18.07c-1,.4-1.71,2.3-1.77,4.64v.61c.06,2.34.81,4.25,1.77,4.64a.51.51,0,0,0,.18.08"/>
  <ellipse class="cls-3" cx="21.03" cy="19.98" rx="1.89" ry="5.02"/>
  <path class="cls-4"
        d="M21.65,15.87a.53.53,0,0,0-.52-.14c-.16,0-.27.12-.27.21a.13.13,0,0,0,0,.08,8.24,8.24,0,0,1,.72,4,8.24,8.24,0,0,1-.72,4c-.07.12,0,.25.25.29a.52.52,0,0,0,.51-.14A8.18,8.18,0,0,0,22.42,20,8.18,8.18,0,0,0,21.65,15.87Z"/>
</svg>