<svg xmlns="http://www.w3.org/2000/svg" width="40" height="40" fill="none" viewBox="0 0 64 64"><path fill="url(#jetbrains-academy_svg__a)" d="M20.34 3.66 3.66 20.34A12.504 12.504 0 0 0 0 29.18V59c0 2.76 2.24 5 5 5h29.82c3.32 0 6.49-1.32 8.84-3.66l16.68-16.68c2.34-2.34 3.66-5.52 3.66-8.84V5c0-2.76-2.24-5-5-5H29.18c-3.32 0-6.49 1.32-8.84 3.66Z"/><path fill="#000" d="M48 16H8v40h40V16Z"/><path fill="#fff" d="M30 47H13v4h17v-4Z"/><defs><linearGradient id="jetbrains-academy_svg__a" x1="55.509" x2="8.009" y1="9" y2="55.507" gradientUnits="userSpaceOnUse"><stop stop-color="#B74AF7"/><stop offset="1" stop-color="#21D789"/></linearGradient></defs></svg>