<svg width="40" height="40" viewBox="0 0 40 40" fill="none" xmlns="http://www.w3.org/2000/svg">
  <path fill-rule="evenodd" clip-rule="evenodd" d="M7 26H0V40H6.99934H7C10.85 40 14 36.85 14 33C14 29.15 10.85 26 7 26"
        fill="url(#paint0_linear_3419_105)"/>
  <path fill-rule="evenodd" clip-rule="evenodd"
        d="M17.0234 10.7637C19.0399 10.1194 20.5 8.23023 20.5 6.00003C20.5 3.23859 18.2614 1 15.5 1C12.7386 1 10.5 3.23859 10.5 6.00003C10.5 8.24748 11.9828 10.1486 14.0234 10.7785V13.156C10.8665 13.8339 8.5 16.6406 8.5 20C8.5 21.7601 9.14955 23.3684 10.222 24.5983C11.4235 25.062 12.5023 25.7767 13.3933 26.6775C13.5994 26.7425 13.8096 26.7982 14.0234 26.8441V27.3847C15.0724 28.6932 15.7647 30.2986 15.9501 32.0508C16.8379 32.255 17.5 33.0502 17.5 34C17.5 35.1046 16.6046 36 15.5 36C15.4947 36 15.4893 36 15.484 35.9999C15.1251 37.0089 14.5907 37.9362 13.9178 38.7446C14.4151 38.9103 14.9471 39.0001 15.5 39.0001C18.2614 39.0001 20.5 36.7615 20.5 34C20.5 31.7698 19.0399 29.8807 17.0234 29.2363V26.8338C18.567 26.4912 19.9188 25.639 20.8932 24.4628L23.5784 26.0131C23.5269 26.3009 23.5 26.5973 23.5 26.8999C23.5 29.6614 25.7386 31.9 28.5 31.9C31.2614 31.9 33.5 29.6614 33.5 26.8999C33.5 24.1385 31.2614 21.8999 28.5 21.8999C27.1242 21.8999 25.8782 22.4556 24.9741 23.3548L22.2684 21.7926C22.4195 21.2205 22.5 20.6197 22.5 20C22.5 19.5347 22.4546 19.08 22.368 18.64L25.0321 17.1019C25.931 17.9677 27.1534 18.5001 28.5 18.5001C31.2614 18.5001 33.5 16.2615 33.5 13.5C33.5 10.7386 31.2614 8.5 28.5 8.5C25.7386 8.5 23.5 10.7386 23.5 13.5C23.5 13.8313 23.5322 14.155 23.5937 14.4683L21.1564 15.8755C20.1699 14.5248 18.7113 13.5409 17.0234 13.1663V10.7637ZM17.5 6C17.5 7.10457 16.6046 8 15.5 8C14.3954 8 13.5 7.10457 13.5 6C13.5 4.89543 14.3954 4 15.5 4C16.6046 4 17.5 4.89543 17.5 6ZM15.4995 24C17.7087 24 19.4995 22.2092 19.4995 20C19.4995 17.7909 17.7087 16 15.4995 16C13.2904 16 11.4995 17.7909 11.4995 20C11.4995 22.2092 13.2904 24 15.4995 24ZM30.5 26.8999C30.5 28.0045 29.6046 28.8999 28.5 28.8999C27.3954 28.8999 26.5 28.0045 26.5 26.8999C26.5 25.7953 27.3954 24.8999 28.5 24.8999C29.6046 24.8999 30.5 25.7953 30.5 26.8999ZM28.5 15.5C29.6046 15.5 30.5 14.6046 30.5 13.5C30.5 12.3954 29.6046 11.5 28.5 11.5C27.3954 11.5 26.5 12.3954 26.5 13.5C26.5 14.6046 27.3954 15.5 28.5 15.5Z"
        fill="#CED0D6"/>
  <defs>
    <linearGradient id="paint0_linear_3419_105" x1="-6.79883" y1="27.9631" x2="1.0516" y2="39.8599" gradientUnits="userSpaceOnUse">
      <stop stop-color="#FF45ED"/>
      <stop offset="1" stop-color="#6B57FF"/>
    </linearGradient>
  </defs>
</svg>
