<svg id="JetBrains2020" xmlns="http://www.w3.org/2000/svg" xmlns:xlink="http://www.w3.org/1999/xlink" width="105" height="105" viewBox="0 0 105 105">
  <defs>
    <linearGradient id="linear-gradient" x1="23.35279" y1="23.35279" x2="76.46477" y2="76.46477" gradientUnits="userSpaceOnUse">
      <stop offset="0.22466" stop-color="#ff0056"/>
      <stop offset="0.29265" stop-color="#f7045b"/>
      <stop offset="0.39792" stop-color="#e10f6a"/>
      <stop offset="0.5273" stop-color="#be2181"/>
      <stop offset="0.67581" stop-color="#8c3aa2"/>
      <stop offset="0.83814" stop-color="#4e59cc"/>
      <stop offset="1" stop-color="#087cfa"/>
    </linearGradient>
  </defs>
  <path d="M22.5,22.5v60h60v-60Zm10.80747,5.09856c3.38087,1.41742,8.07013,3.817,10.30616,5.72549l-3.59936,5.28936a43.41935,43.41935,0,0,0-10.03315-6.2715ZM30.36274,42.15741A55.33815,55.33815,0,0,1,40.996,47.61074l-3.38087,5.45249c-2.18108-1.9085-6.92528-4.47119-10.36067-6.05259ZM28.6723,72.53025A163.15017,163.15017,0,0,0,38.81491,55.35377l4.47119,4.4171c-2.83528,5.67055-6.21614,11.833-9.43346,17.12239Zm45.42281,4.7442a40.499,40.499,0,0,1-13.469-9.86959A45.389,45.389,0,0,1,44.97654,77.43842a22.191,22.191,0,0,0-3.65345-5.45333,37.9313,37.9313,0,0,0,15.377-9.70647C52.065,55.29883,48.84806,46.73848,46.55752,36.814l2.89022-.60011h-4.4712V30.10631H70.65972l1.03624-.27216,4.08958,1.36334C74.14963,44.7201,70.44166,54.8627,64.93422,62.3885a36.11288,36.11288,0,0,0,13.414,9.54249A28.21249,28.21249,0,0,0,74.09511,77.27445ZM68.91477,36.21384a55.08925,55.08925,0,0,1-8.016,20.83036,64.40741,64.40741,0,0,1-8.12465-20.83036Z" fill="url(#linear-gradient)"/>
</svg>
