<?xml version="1.0" encoding="UTF-8" standalone="no"?>
<!DOCTYPE svg PUBLIC "-//W3C//DTD SVG 1.1//EN" "http://www.w3.org/Graphics/SVG/1.1/DTD/svg11.dtd">
<svg width="100%" height="100%" viewBox="0 0 43 43" version="1.1" xmlns="http://www.w3.org/2000/svg" xmlns:xlink="http://www.w3.org/1999/xlink" xml:space="preserve" xmlns:serif="http://www.serif.com/" style="fill-rule:evenodd;clip-rule:evenodd;stroke-linecap:round;stroke-linejoin:round;stroke-miterlimit:1.5;">
    <g transform="matrix(1,0,0,1,0,-118)">
        <g id="Artboard1" transform="matrix(1,0,0,1,176.322,30.0993)">
            <rect x="-176.322" y="87.901" width="42.028" height="42.028" style="fill:none;"/>
            <g transform="matrix(0.142891,0,0,0.142891,-173.604,90.9548)">
                <path d="M128.001,0C57.317,0 0,57.307 0,128.001C0,184.555 36.676,232.536 87.535,249.461C93.932,250.646 96.281,246.684 96.281,243.303C96.281,240.251 96.162,230.168 96.107,219.472C60.497,227.215 52.983,204.37 52.983,204.37C47.16,189.575 38.77,185.641 38.77,185.641C27.157,177.696 39.646,177.859 39.646,177.859C52.499,178.762 59.267,191.05 59.267,191.05C70.684,210.618 89.212,204.961 96.516,201.69C97.665,193.418 100.982,187.771 104.643,184.574C76.212,181.338 46.325,170.362 46.325,121.316C46.325,107.341 51.325,95.922 59.513,86.958C58.184,83.734 53.803,70.716 60.753,53.084C60.753,53.084 71.502,49.644 95.963,66.205C106.173,63.369 117.123,61.947 128.001,61.898C138.879,61.947 149.838,63.369 160.067,66.205C184.498,49.644 195.232,53.084 195.232,53.084C202.199,70.716 197.816,83.734 196.487,86.958C204.694,95.922 209.66,107.341 209.66,121.316C209.66,170.479 179.716,181.304 151.213,184.473C155.804,188.445 159.895,196.235 159.895,208.177C159.895,225.303 159.747,239.087 159.747,243.303C159.747,246.71 162.051,250.701 168.539,249.444C219.37,232.5 256,184.536 256,128.001C256,57.307 198.691,0 128.001,0ZM47.941,182.34C47.659,182.976 46.658,183.167 45.747,182.73C44.818,182.313 44.297,181.446 44.598,180.808C44.873,180.153 45.876,179.97 46.802,180.409C47.733,180.827 48.263,181.702 47.941,182.34ZM54.237,187.958C53.626,188.524 52.433,188.261 51.623,187.367C50.786,186.475 50.629,185.281 51.248,184.707C51.878,184.141 53.035,184.406 53.874,185.298C54.712,186.201 54.875,187.386 54.237,187.958ZM58.556,195.146C57.772,195.691 56.49,195.18 55.697,194.042C54.913,192.904 54.913,191.539 55.714,190.992C56.509,190.445 57.772,190.937 58.575,192.067C59.357,193.224 59.357,194.589 58.556,195.146ZM65.861,203.471C65.16,204.245 63.665,204.037 62.572,202.982C61.452,201.949 61.141,200.485 61.845,199.711C62.555,198.935 64.058,199.153 65.16,200.201C66.27,201.231 66.61,202.706 65.861,203.471ZM75.303,206.282C74.993,207.284 73.554,207.74 72.104,207.314C70.656,206.875 69.709,205.701 70.001,204.688C70.302,203.679 71.748,203.204 73.208,203.66C74.654,204.096 75.604,205.262 75.303,206.282ZM86.047,207.474C86.083,208.529 84.854,209.405 83.332,209.424C81.801,209.458 80.563,208.603 80.546,207.565C80.546,206.499 81.748,205.632 83.279,205.606C84.801,205.577 86.047,206.424 86.047,207.474ZM96.602,207.069C96.784,208.099 95.727,209.157 94.215,209.439C92.73,209.71 91.354,209.074 91.165,208.053C90.981,206.997 92.058,205.939 93.541,205.666C95.055,205.403 96.409,206.022 96.602,207.069Z" style="fill:rgb(11,34,42);fill-rule:nonzero;"/>
                <g transform="matrix(0.658599,0,0,1.17084,39.1508,-24.3276)">
                    <circle cx="83.452" cy="121.509" r="19.116" style="fill:rgb(177,66,58);stroke:white;stroke-width:4.49px;"/>
                </g>
                <g transform="matrix(0.658599,0,0,1.17084,108.218,-24.3276)">
                    <circle cx="83.452" cy="121.509" r="19.116" style="fill:rgb(177,66,58);stroke:white;stroke-width:4.49px;"/>
                </g>
                <path d="M128.001,0C57.317,0 0,57.307 0,128.001C0,184.555 36.676,232.536 87.535,249.461C93.932,250.646 96.281,246.684 96.281,243.303C96.281,240.251 96.162,230.168 96.107,219.472C60.497,227.215 52.983,204.37 52.983,204.37C47.16,189.575 38.77,185.641 38.77,185.641C27.157,177.696 39.646,177.859 39.646,177.859C52.499,178.762 59.267,191.05 59.267,191.05C70.684,210.618 89.212,204.961 96.516,201.69C97.665,193.418 100.982,187.771 104.643,184.574C76.212,181.338 46.325,170.362 46.325,121.316C46.325,107.341 51.325,95.922 59.513,86.958C58.184,83.734 53.803,70.716 60.753,53.084C60.753,53.084 71.502,49.644 95.963,66.205C106.173,63.369 117.123,61.947 128.001,61.898C138.879,61.947 149.838,63.369 160.067,66.205C184.498,49.644 195.232,53.084 195.232,53.084C202.199,70.716 197.816,83.734 196.487,86.958C204.694,95.922 209.66,107.341 209.66,121.316C209.66,170.479 179.716,181.304 151.213,184.473C155.804,188.445 159.895,196.235 159.895,208.177C159.895,225.303 159.747,239.087 159.747,243.303C159.747,246.71 162.051,250.701 168.539,249.444C219.37,232.5 256,184.536 256,128.001C256,57.307 198.691,0 128.001,0ZM47.941,182.34C47.659,182.976 46.658,183.167 45.747,182.73C44.818,182.313 44.297,181.446 44.598,180.808C44.873,180.153 45.876,179.97 46.802,180.409C47.733,180.827 48.263,181.702 47.941,182.34ZM54.237,187.958C53.626,188.524 52.433,188.261 51.623,187.367C50.786,186.475 50.629,185.281 51.248,184.707C51.878,184.141 53.035,184.406 53.874,185.298C54.712,186.201 54.875,187.386 54.237,187.958ZM58.556,195.146C57.772,195.691 56.49,195.18 55.697,194.042C54.913,192.904 54.913,191.539 55.714,190.992C56.509,190.445 57.772,190.937 58.575,192.067C59.357,193.224 59.357,194.589 58.556,195.146ZM65.861,203.471C65.16,204.245 63.665,204.037 62.572,202.982C61.452,201.949 61.141,200.485 61.845,199.711C62.555,198.935 64.058,199.153 65.16,200.201C66.27,201.231 66.61,202.706 65.861,203.471ZM75.303,206.282C74.993,207.284 73.554,207.74 72.104,207.314C70.656,206.875 69.709,205.701 70.001,204.688C70.302,203.679 71.748,203.204 73.208,203.66C74.654,204.096 75.604,205.262 75.303,206.282ZM86.047,207.474C86.083,208.529 84.854,209.405 83.332,209.424C81.801,209.458 80.563,208.603 80.546,207.565C80.546,206.499 81.748,205.632 83.279,205.606C84.801,205.577 86.047,206.424 86.047,207.474ZM96.602,207.069C96.784,208.099 95.727,209.157 94.215,209.439C92.73,209.71 91.354,209.074 91.165,208.053C90.981,206.997 92.058,205.939 93.541,205.666C95.055,205.403 96.409,206.022 96.602,207.069Z" style="fill:rgb(11,34,42);fill-rule:nonzero;"/>
            </g>
        </g>
    </g>
</svg>
