<?xml version="1.0" encoding="UTF-8" standalone="no"?>
<!DOCTYPE svg PUBLIC "-//W3C//DTD SVG 1.1//EN" "http://www.w3.org/Graphics/SVG/1.1/DTD/svg11.dtd">
<svg width="100%" height="100%" viewBox="0 0 800 800" version="1.1" xmlns="http://www.w3.org/2000/svg" xmlns:xlink="http://www.w3.org/1999/xlink" xml:space="preserve" xmlns:serif="http://www.serif.com/" style="fill-rule:evenodd;clip-rule:evenodd;stroke-linecap:round;stroke-linejoin:round;">
    <g transform="matrix(1,0,0,1,12.0757,60.1252)">
        <g transform="matrix(1.17706,0,0,1.12568,-98.851,-51.5806)">
            <g transform="matrix(0.711383,0,0,0.711383,129,63.1983)">
                <path d="M800,725C800,766.25 766.25,800 725,800L75,800C33.75,800 0,766.25 0,725L0,75C0,33.75 33.75,0 75,0L725,0C766.25,0 800,33.75 800,75L800,725Z" style="fill:rgb(1,165,156);fill-rule:nonzero;"/>
            </g>
            <g transform="matrix(0.711383,0,0,0.711383,129,63.1983)">
                <path d="M0,500L0,600L800,600L800,500L0,500Z" style="fill:rgb(244,214,176);fill-rule:nonzero;"/>
            </g>
            <g transform="matrix(0.711383,0,0,0.711383,129,63.1983)">
                <path d="M0,725C0,738.7 4,751.425 10.475,762.5C23.525,740.225 47.45,725 75,725L506.25,725C506.25,683.75 538.6,650 578.125,650C617.65,650 650,683.75 650,725L650,744.575C650.15,744.725 650.325,744.825 650.5,744.975C653.025,706.1 684,675 721.875,675C761.4,675 793.75,708.75 793.75,750L793.75,754.725C797.725,745.6 800,735.55 800,725L800,600L0,600L0,725Z" style="fill:rgb(248,173,137);fill-rule:nonzero;"/>
            </g>
            <g transform="matrix(0.711383,0,0,0.711383,129,63.1983)">
                <path d="M793.75,754.725L793.75,750C793.75,708.75 761.4,675 721.875,675C684,675 653.025,706.1 650.5,744.975C650.35,744.825 650.175,744.725 650,744.575L650,725C650,683.75 617.65,650 578.125,650C538.6,650 506.25,683.75 506.25,725L75,725C47.45,725 23.525,740.225 10.475,762.5C23.525,784.775 47.45,800 75,800L725,800C755.7,800 782.175,781.275 793.75,754.725Z" style="fill:rgb(12,102,103);fill-rule:nonzero;"/>
            </g>
            <g transform="matrix(0.969795,0,0,0.711383,129,63.1983)">
                <path d="M500,500L500,75C500,33.75 466.25,0 425,0L375,0C333.75,0 300,33.75 300,75L300,300L75,300C33.75,300 0,333.75 0,375L0,500L500,500Z" style="fill:rgb(229,77,46);fill-rule:nonzero;"/>
            </g>
            <g transform="matrix(1.23199,0,0,0.711383,-287.484,63.1983)">
                <path d="M725,300L500,300L500,500L800,500L800,375C800,333.75 766.25,300 725,300Z" style="fill:rgb(242,114,97);fill-rule:nonzero;"/>
            </g>
            <g transform="matrix(1.03319,0,0,1.08035,21.5073,-18.2126)">
                <circle cx="202.046" cy="197.475" r="31.542" style="fill:rgb(244,214,176);"/>
            </g>
        </g>
        <g id="Vector" transform="matrix(1.16126,0,0,1.22549,-76.5813,-150.32)">
            <path d="M100,200L100.64,200M100.64,200L699.363,200M100.64,200C100,210.479 100,223.397 100,240.007L100,560.007C100,597.343 100,615.987 107.266,630.247C113.658,642.79 123.849,653.017 136.393,659.407C150.64,666.667 169.3,666.667 206.565,666.667L593.437,666.667C630.7,666.667 649.333,666.667 663.58,659.407C676.123,653.017 686.35,642.79 692.74,630.247C700,616 700,597.367 700,560.103L700,239.897C700,223.34 700,210.456 699.363,200M100.64,200C101.438,186.923 103.232,177.643 107.266,169.727C113.658,157.182 123.849,146.991 136.393,140.6C150.654,133.333 169.336,133.333 206.673,133.333L593.34,133.333C630.677,133.333 649.32,133.333 663.58,140.6C676.123,146.991 686.35,157.182 692.74,169.727C696.773,177.643 698.567,186.923 699.363,200M699.363,200L700,200M466.667,366.667L533.333,433.333L466.667,500M333.333,500L266.667,433.333L333.333,366.667" style="fill:none;fill-rule:nonzero;stroke:black;stroke-width:29.32px;"/>
        </g>
    </g>
</svg>
