<svg id="png2svg" version="1.1" xmlns="http://www.w3.org/2000/svg" xmlns:xlink="http://www.w3.org/1999/xlink" width="420" height="420" viewBox="0, 0, 420, 420">
<g id="svgg">
<path id="path0" d="M180 110L 350 110L 350 120L 180 120Z" fill="#000000" />
<path id="path1" d="M170 120L 180 120L 180 130L 170 130Z" fill="#000000" />
<path id="path2" d="M180 120L 350 120L 350 130L 180 130Z" fill="#fff0cd" />
<path id="path3" d="M350 120L 360 120L 360 130L 350 130Z" fill="#000000" />
<path id="path4" d="M160 130L 170 130L 170 140L 160 140Z" fill="#000000" />
<path id="path5" d="M170 130L 200 130L 200 140L 170 140Z" fill="#fff0cd" />
<path id="path6" d="M200 130L 330 130L 330 140L 200 140Z" fill="#ff9ff1" />
<path id="path7" d="M330 130L 360 130L 360 140L 330 140Z" fill="#fff0cd" />
<path id="path8" d="M360 130L 370 130L 370 140L 360 140Z" fill="#000000" />
<path id="path9" d="M40 140L 80 140L 80 150L 40 150Z" fill="#ff0000" />
<path id="path10" d="M120 140L 160 140L 160 150L 120 150Z" fill="#ff0000" />
<path id="path11" d="M160 140L 170 140L 170 150L 160 150Z" fill="#000000" />
<path id="path12" d="M170 140L 190 140L 190 150L 170 150Z" fill="#fff0cd" />
<path id="path13" d="M190 140L 250 140L 250 150L 190 150Z" fill="#ff9ff1" />
<path id="path14" d="M250 140L 260 140L 260 150L 250 150Z" fill="#de67ce" />
<path id="path15" d="M260 140L 280 140L 280 150L 260 150Z" fill="#ff9ff1" />
<path id="path16" d="M280 140L 290 140L 290 150L 280 150Z" fill="#de67ce" />
<path id="path17" d="M290 140L 340 140L 340 150L 290 150Z" fill="#ff9ff1" />
<path id="path18" d="M340 140L 360 140L 360 150L 340 150Z" fill="#fff0cd" />
<path id="path19" d="M360 140L 370 140L 370 150L 360 150Z" fill="#000000" />
<path id="path20" d="M0 150L 160 150L 160 160L 0 160Z" fill="#ff0000" />
<path id="path21" d="M160 150L 170 150L 170 160L 160 160Z" fill="#000000" />
<path id="path22" d="M170 150L 180 150L 180 160L 170 160Z" fill="#fff0cd" />
<path id="path23" d="M180 150L 200 150L 200 160L 180 160Z" fill="#ff9ff1" />
<path id="path24" d="M200 150L 210 150L 210 160L 200 160Z" fill="#de67ce" />
<path id="path25" d="M210 150L 350 150L 350 160L 210 160Z" fill="#ff9ff1" />
<path id="path26" d="M350 150L 360 150L 360 160L 350 160Z" fill="#fff0cd" />
<path id="path27" d="M360 150L 370 150L 370 160L 360 160Z" fill="#000000" />
<path id="path28" d="M0 160L 40 160L 40 170L 0 170Z" fill="#ff0000" />
<path id="path29" d="M40 160L 80 160L 80 170L 40 170Z" fill="#ffcb00" />
<path id="path30" d="M80 160L 120 160L 120 170L 80 170Z" fill="#ff0000" />
<path id="path31" d="M120 160L 160 160L 160 170L 120 170Z" fill="#ffcb00" />
<path id="path32" d="M160 160L 170 160L 170 170L 160 170Z" fill="#000000" />
<path id="path33" d="M170 160L 180 160L 180 170L 170 170Z" fill="#fff0cd" />
<path id="path34" d="M180 160L 280 160L 280 170L 180 170Z" fill="#ff9ff1" />
<path id="path35" d="M280 160L 300 160L 300 170L 280 170Z" fill="#000000" />
<path id="path36" d="M300 160L 310 160L 310 170L 300 170Z" fill="#ff9ff1" />
<path id="path37" d="M310 160L 320 160L 320 170L 310 170Z" fill="#de67ce" />
<path id="path38" d="M320 160L 350 160L 350 170L 320 170Z" fill="#ff9ff1" />
<path id="path39" d="M350 160L 360 160L 360 170L 350 170Z" fill="#fff0cd" />
<path id="path40" d="M360 160L 370 160L 370 170L 360 170Z" fill="#000000" />
<path id="path41" d="M380 160L 400 160L 400 170L 380 170Z" fill="#000000" />
<path id="path42" d="M0 170L 160 170L 160 180L 0 180Z" fill="#ffcb00" />
<path id="path43" d="M160 170L 170 170L 170 180L 160 180Z" fill="#000000" />
<path id="path44" d="M170 170L 180 170L 180 180L 170 180Z" fill="#fff0cd" />
<path id="path45" d="M180 170L 270 170L 270 180L 180 180Z" fill="#ff9ff1" />
<path id="path46" d="M270 170L 280 170L 280 180L 270 180Z" fill="#000000" />
<path id="path47" d="M280 170L 300 170L 300 180L 280 180Z" fill="#bdbbbb" />
<path id="path48" d="M300 170L 310 170L 310 180L 300 180Z" fill="#000000" />
<path id="path49" d="M310 170L 350 170L 350 180L 310 180Z" fill="#ff9ff1" />
<path id="path50" d="M350 170L 360 170L 360 180L 350 180Z" fill="#fff0cd" />
<path id="path51" d="M360 170L 380 170L 380 180L 360 180Z" fill="#000000" />
<path id="path52" d="M380 170L 400 170L 400 180L 380 180Z" fill="#bdbbbb" />
<path id="path53" d="M400 170L 410 170L 410 180L 400 180Z" fill="#000000" />
<path id="path54" d="M0 180L 40 180L 40 190L 0 190Z" fill="#ffcb00" />
<path id="path55" d="M40 180L 80 180L 80 190L 40 190Z" fill="#feff00" />
<path id="path56" d="M80 180L 100 180L 100 190L 80 190Z" fill="#ffcb00" />
<path id="path57" d="M100 180L 140 180L 140 190L 100 190Z" fill="#000000" />
<path id="path58" d="M140 180L 160 180L 160 190L 140 190Z" fill="#feff00" />
<path id="path59" d="M160 180L 170 180L 170 190L 160 190Z" fill="#000000" />
<path id="path60" d="M170 180L 180 180L 180 190L 170 190Z" fill="#fff0cd" />
<path id="path61" d="M180 180L 240 180L 240 190L 180 190Z" fill="#ff9ff1" />
<path id="path62" d="M240 180L 250 180L 250 190L 240 190Z" fill="#de67ce" />
<path id="path63" d="M250 180L 270 180L 270 190L 250 190Z" fill="#ff9ff1" />
<path id="path64" d="M270 180L 280 180L 280 190L 270 190Z" fill="#000000" />
<path id="path65" d="M280 180L 310 180L 310 190L 280 190Z" fill="#bdbbbb" />
<path id="path66" d="M310 180L 320 180L 320 190L 310 190Z" fill="#000000" />
<path id="path67" d="M320 180L 350 180L 350 190L 320 190Z" fill="#ff9ff1" />
<path id="path68" d="M350 180L 360 180L 360 190L 350 190Z" fill="#fff0cd" />
<path id="path69" d="M360 180L 370 180L 370 190L 360 190Z" fill="#000000" />
<path id="path70" d="M370 180L 400 180L 400 190L 370 190Z" fill="#bdbbbb" />
<path id="path71" d="M400 180L 410 180L 410 190L 400 190Z" fill="#000000" />
<path id="path72" d="M0 190L 100 190L 100 200L 0 200Z" fill="#feff00" />
<path id="path73" d="M100 190L 110 190L 110 200L 100 200Z" fill="#000000" />
<path id="path74" d="M110 190L 130 190L 130 200L 110 200Z" fill="#bdbbbb" />
<path id="path75" d="M130 190L 150 190L 150 200L 130 200Z" fill="#000000" />
<path id="path76" d="M150 190L 160 190L 160 200L 150 200Z" fill="#feff00" />
<path id="path77" d="M160 190L 170 190L 170 200L 160 200Z" fill="#000000" />
<path id="path78" d="M170 190L 180 190L 180 200L 170 200Z" fill="#fff0cd" />
<path id="path79" d="M180 190L 270 190L 270 200L 180 200Z" fill="#ff9ff1" />
<path id="path80" d="M270 190L 280 190L 280 200L 270 200Z" fill="#000000" />
<path id="path81" d="M280 190L 320 190L 320 200L 280 200Z" fill="#bdbbbb" />
<path id="path82" d="M320 190L 360 190L 360 200L 320 200Z" fill="#000000" />
<path id="path83" d="M360 190L 400 190L 400 200L 360 200Z" fill="#bdbbbb" />
<path id="path84" d="M400 190L 410 190L 410 200L 400 200Z" fill="#000000" />
<path id="path85" d="M0 200L 40 200L 40 210L 0 210Z" fill="#feff00" />
<path id="path86" d="M40 200L 80 200L 80 210L 40 210Z" fill="#00ad00" />
<path id="path87" d="M80 200L 100 200L 100 210L 80 210Z" fill="#feff00" />
<path id="path88" d="M100 200L 120 200L 120 210L 100 210Z" fill="#000000" />
<path id="path89" d="M120 200L 140 200L 140 210L 120 210Z" fill="#bdbbbb" />
<path id="path90" d="M140 200L 170 200L 170 210L 140 210Z" fill="#000000" />
<path id="path91" d="M170 200L 180 200L 180 210L 170 210Z" fill="#fff0cd" />
<path id="path92" d="M180 200L 210 200L 210 210L 180 210Z" fill="#ff9ff1" />
<path id="path93" d="M210 200L 220 200L 220 210L 210 210Z" fill="#de67ce" />
<path id="path94" d="M220 200L 270 200L 270 210L 220 210Z" fill="#ff9ff1" />
<path id="path95" d="M270 200L 280 200L 280 210L 270 210Z" fill="#000000" />
<path id="path96" d="M280 200L 400 200L 400 210L 280 210Z" fill="#bdbbbb" />
<path id="path97" d="M400 200L 410 200L 410 210L 400 210Z" fill="#000000" />
<path id="path98" d="M0 210L 110 210L 110 220L 0 220Z" fill="#00ad00" />
<path id="path99" d="M110 210L 130 210L 130 220L 110 220Z" fill="#000000" />
<path id="path100" d="M130 210L 150 210L 150 220L 130 220Z" fill="#bdbbbb" />
<path id="path101" d="M150 210L 170 210L 170 220L 150 220Z" fill="#000000" />
<path id="path102" d="M170 210L 180 210L 180 220L 170 220Z" fill="#fff0cd" />
<path id="path103" d="M180 210L 260 210L 260 220L 180 220Z" fill="#ff9ff1" />
<path id="path104" d="M260 210L 270 210L 270 220L 260 220Z" fill="#000000" />
<path id="path105" d="M270 210L 410 210L 410 220L 270 220Z" fill="#bdbbbb" />
<path id="path106" d="M410 210L 420 210L 420 220L 410 220Z" fill="#000000" />
<path id="path107" d="M0 220L 40 220L 40 230L 0 230Z" fill="#00ad00" />
<path id="path108" d="M40 220L 80 220L 80 230L 40 230Z" fill="#008bff" />
<path id="path109" d="M80 220L 120 220L 120 230L 80 230Z" fill="#00ad00" />
<path id="path110" d="M120 220L 140 220L 140 230L 120 230Z" fill="#000000" />
<path id="path111" d="M140 220L 160 220L 160 230L 140 230Z" fill="#bdbbbb" />
<path id="path112" d="M160 220L 170 220L 170 230L 160 230Z" fill="#000000" />
<path id="path113" d="M170 220L 180 220L 180 230L 170 230Z" fill="#fff0cd" />
<path id="path114" d="M180 220L 190 220L 190 230L 180 230Z" fill="#ff9ff1" />
<path id="path115" d="M190 220L 200 220L 200 230L 190 230Z" fill="#de67ce" />
<path id="path116" d="M200 220L 260 220L 260 230L 200 230Z" fill="#ff9ff1" />
<path id="path117" d="M260 220L 270 220L 270 230L 260 230Z" fill="#000000" />
<path id="path118" d="M270 220L 300 220L 300 230L 270 230Z" fill="#bdbbbb" />
<path id="path119" d="M300 220L 310 220L 310 230L 300 230Z" fill="#ffffff" />
<path id="path120" d="M310 220L 320 220L 320 230L 310 230Z" fill="#000000" />
<path id="path121" d="M320 220L 370 220L 370 230L 320 230Z" fill="#bdbbbb" />
<path id="path122" d="M370 220L 380 220L 380 230L 370 230Z" fill="#ffffff" />
<path id="path123" d="M380 220L 390 220L 390 230L 380 230Z" fill="#000000" />
<path id="path124" d="M390 220L 410 220L 410 230L 390 230Z" fill="#bdbbbb" />
<path id="path125" d="M410 220L 420 220L 420 230L 410 230Z" fill="#000000" />
<path id="path126" d="M0 230L 130 230L 130 240L 0 240Z" fill="#008bff" />
<path id="path127" d="M130 230L 170 230L 170 240L 130 240Z" fill="#000000" />
<path id="path128" d="M170 230L 180 230L 180 240L 170 240Z" fill="#fff0cd" />
<path id="path129" d="M180 230L 240 230L 240 240L 180 240Z" fill="#ff9ff1" />
<path id="path130" d="M240 230L 250 230L 250 240L 240 240Z" fill="#de67ce" />
<path id="path131" d="M250 230L 260 230L 260 240L 250 240Z" fill="#ff9ff1" />
<path id="path132" d="M260 230L 270 230L 270 240L 260 240Z" fill="#000000" />
<path id="path133" d="M270 230L 300 230L 300 240L 270 240Z" fill="#bdbbbb" />
<path id="path134" d="M300 230L 320 230L 320 240L 300 240Z" fill="#000000" />
<path id="path135" d="M320 230L 350 230L 350 240L 320 240Z" fill="#bdbbbb" />
<path id="path136" d="M350 230L 360 230L 360 240L 350 240Z" fill="#000000" />
<path id="path137" d="M360 230L 370 230L 370 240L 360 240Z" fill="#bdbbbb" />
<path id="path138" d="M370 230L 390 230L 390 240L 370 240Z" fill="#000000" />
<path id="path139" d="M390 230L 410 230L 410 240L 390 240Z" fill="#bdbbbb" />
<path id="path140" d="M410 230L 420 230L 420 240L 410 240Z" fill="#000000" />
<path id="path141" d="M0 240L 40 240L 40 250L 0 250Z" fill="#008bff" />
<path id="path142" d="M40 240L 80 240L 80 250L 40 250Z" fill="#8d24ff" />
<path id="path143" d="M80 240L 120 240L 120 250L 80 250Z" fill="#008bff" />
<path id="path144" d="M120 240L 150 240L 150 250L 120 250Z" fill="#8d24ff" />
<path id="path145" d="M150 240L 170 240L 170 250L 150 250Z" fill="#000000" />
<path id="path146" d="M170 240L 180 240L 180 250L 170 250Z" fill="#fff0cd" />
<path id="path147" d="M180 240L 260 240L 260 250L 180 250Z" fill="#ff9ff1" />
<path id="path148" d="M260 240L 270 240L 270 250L 260 250Z" fill="#000000" />
<path id="path149" d="M270 240L 280 240L 280 250L 270 250Z" fill="#bdbbbb" />
<path id="path150" d="M280 240L 300 240L 300 250L 280 250Z" fill="#ffb9eb" />
<path id="path151" d="M300 240L 390 240L 390 250L 300 250Z" fill="#bdbbbb" />
<path id="path152" d="M390 240L 410 240L 410 250L 390 250Z" fill="#ffb9eb" />
<path id="path153" d="M410 240L 420 240L 420 250L 410 250Z" fill="#000000" />
<path id="path154" d="M0 250L 160 250L 160 260L 0 260Z" fill="#8d24ff" />
<path id="path155" d="M160 250L 170 250L 170 260L 160 260Z" fill="#000000" />
<path id="path156" d="M170 250L 190 250L 190 260L 170 260Z" fill="#fff0cd" />
<path id="path157" d="M190 250L 200 250L 200 260L 190 260Z" fill="#ff9ff1" />
<path id="path158" d="M200 250L 210 250L 210 260L 200 260Z" fill="#de67ce" />
<path id="path159" d="M210 250L 260 250L 260 260L 210 260Z" fill="#ff9ff1" />
<path id="path160" d="M260 250L 270 250L 270 260L 260 260Z" fill="#000000" />
<path id="path161" d="M270 250L 280 250L 280 260L 270 260Z" fill="#bdbbbb" />
<path id="path162" d="M280 250L 300 250L 300 260L 280 260Z" fill="#ffb9eb" />
<path id="path163" d="M300 250L 310 250L 310 260L 300 260Z" fill="#bdbbbb" />
<path id="path164" d="M310 250L 320 250L 320 260L 310 260Z" fill="#000000" />
<path id="path165" d="M320 250L 340 250L 340 260L 320 260Z" fill="#bdbbbb" />
<path id="path166" d="M340 250L 350 250L 350 260L 340 260Z" fill="#000000" />
<path id="path167" d="M350 250L 370 250L 370 260L 350 260Z" fill="#bdbbbb" />
<path id="path168" d="M370 250L 380 250L 380 260L 370 260Z" fill="#000000" />
<path id="path169" d="M380 250L 390 250L 390 260L 380 260Z" fill="#bdbbbb" />
<path id="path170" d="M390 250L 410 250L 410 260L 390 260Z" fill="#ffb9eb" />
<path id="path171" d="M410 250L 420 250L 420 260L 410 260Z" fill="#000000" />
<path id="path172" d="M0 260L 40 260L 40 270L 0 270Z" fill="#8d24ff" />
<path id="path173" d="M80 260L 120 260L 120 270L 80 270Z" fill="#8d24ff" />
<path id="path174" d="M160 260L 170 260L 170 270L 160 270Z" fill="#000000" />
<path id="path175" d="M170 260L 200 260L 200 270L 170 270Z" fill="#fff0cd" />
<path id="path176" d="M200 260L 270 260L 270 270L 200 270Z" fill="#ff9ff1" />
<path id="path177" d="M270 260L 280 260L 280 270L 270 270Z" fill="#000000" />
<path id="path178" d="M280 260L 310 260L 310 270L 280 270Z" fill="#bdbbbb" />
<path id="path179" d="M310 260L 380 260L 380 270L 310 270Z" fill="#000000" />
<path id="path180" d="M380 260L 400 260L 400 270L 380 270Z" fill="#bdbbbb" />
<path id="path181" d="M400 260L 410 260L 410 270L 400 270Z" fill="#000000" />
<path id="path182" d="M150 270L 180 270L 180 280L 150 280Z" fill="#000000" />
<path id="path183" d="M180 270L 280 270L 280 280L 180 280Z" fill="#fff0cd" />
<path id="path184" d="M280 270L 290 270L 290 280L 280 280Z" fill="#000000" />
<path id="path185" d="M290 270L 390 270L 390 280L 290 280Z" fill="#bdbbbb" />
<path id="path186" d="M390 270L 400 270L 400 280L 390 280Z" fill="#000000" />
<path id="path187" d="M140 280L 150 280L 150 290L 140 290Z" fill="#000000" />
<path id="path188" d="M150 280L 180 280L 180 290L 150 290Z" fill="#bdbbbb" />
<path id="path189" d="M180 280L 390 280L 390 290L 180 290Z" fill="#000000" />
<path id="path190" d="M140 290L 150 290L 150 300L 140 300Z" fill="#000000" />
<path id="path191" d="M150 290L 170 290L 170 300L 150 300Z" fill="#bdbbbb" />
<path id="path192" d="M170 290L 190 290L 190 300L 170 300Z" fill="#000000" />
<path id="path193" d="M200 290L 210 290L 210 300L 200 300Z" fill="#000000" />
<path id="path194" d="M210 290L 230 290L 230 300L 210 300Z" fill="#bdbbbb" />
<path id="path195" d="M230 290L 240 290L 240 300L 230 300Z" fill="#000000" />
<path id="path196" d="M290 290L 300 290L 300 300L 290 300Z" fill="#000000" />
<path id="path197" d="M300 290L 320 290L 320 300L 300 300Z" fill="#bdbbbb" />
<path id="path198" d="M320 290L 330 290L 330 300L 320 300Z" fill="#000000" />
<path id="path199" d="M340 290L 350 290L 350 300L 340 300Z" fill="#000000" />
<path id="path200" d="M350 290L 370 290L 370 300L 350 300Z" fill="#bdbbbb" />
<path id="path201" d="M370 290L 380 290L 380 300L 370 300Z" fill="#000000" />
<path id="path202" d="M140 300L 180 300L 180 310L 140 310Z" fill="#000000" />
<path id="path203" d="M200 300L 230 300L 230 310L 200 310Z" fill="#000000" />
<path id="path204" d="M300 300L 330 300L 330 310L 300 310Z" fill="#000000" />
<path id="path205" d="M350 300L 370 300L 370 310L 350 310Z" fill="#000000" />
</g></svg>