<svg xmlns="http://www.w3.org/2000/svg" xml:space="preserve" style="fill-rule:evenodd;clip-rule:evenodd;stroke-linejoin:round;stroke-miterlimit:2" viewBox="0 0 600 600">
  <filter xmlns="http://www.w3.org/2000/svg" id="a" width="100%" height="100%" x="0%" y="0%">
    <feTurbulence xmlns="http://www.w3.org/2000/svg" baseFrequency=".005" type="fractalNoise"/>
  </filter>
  <path d="M0 0h600v600H0z" style="fill:#30a9b3;fill-rule:nonzero"/>
  <path d="M0 0h600v600H0z" opacity=".5" style="filter:url(#a)"/>
  <path d="M7.888 18.148c0 1.133.162 1.892.487 2.28.325.387.916.581 1.773.581.886 0 2.024-.447 3.412-1.341l.886 1.475c-2.599 2.175-4.741 3.263-6.425 3.263-1.684 0-3.014-.402-3.988-1.207-.975-.834-1.463-2.294-1.463-4.38V7.107H.355L0 5.453l2.57-.804V2.458L7.888 0v4.917l5.229-.402-.488 2.905-4.741-.179v10.907Z" style="fill:#fff;fill-rule:nonzero" transform="translate(200 122) scale(14.1524)"/>
  <circle cx="240" cy="247" r="101" style="fill:#30a9b3" transform="translate(-7 9)"/>
  <g transform="translate(163 144) scale(16.7338)">
    <clipPath id="b">
      <circle cx="4.183" cy="6.693" r="6.036"/>
    </clipPath>
    <g clip-path="url(#b)">
      <path d="M7.888 18.148c0 1.133.162 1.892.487 2.28.325.387.916.581 1.773.581.886 0 2.024-.447 3.412-1.341l.886 1.475c-2.599 2.175-4.741 3.263-6.425 3.263-1.684 0-3.014-.402-3.988-1.207-.975-.834-1.463-2.294-1.463-4.38V7.107H.355L0 5.453l2.57-.804V2.458L7.888 0v4.917l5.229-.402-.488 2.905-4.741-.179v10.907Z" style="fill:#fff;fill-rule:nonzero"/>
    </g>
  </g>
  <path d="M352.734 406.179a8.004 8.004 0 0 1-5.668-2.348l-72.685-72.685a8.019 8.019 0 0 1 0-11.337 8.018 8.018 0 0 1 11.337 0l72.685 72.685a8.018 8.018 0 0 1-5.669 13.685" style="fill:#7b7979;fill-rule:nonzero" transform="translate(30)"/>
  <path d="m429.598 441.015-59.858-59.858a23.91 23.91 0 0 0-17.006-7.045 23.91 23.91 0 0 0-17.006 7.045c-9.377 9.376-9.377 24.635 0 34.011l59.858 59.858a23.91 23.91 0 0 0 17.006 7.045 23.905 23.905 0 0 0 17.006-7.044c9.377-9.377 9.377-24.636 0-34.012" style="fill:#a7a6a6;fill-rule:nonzero" transform="translate(30)"/>
  <path d="M330.327 389.472c-3.325 8.611-1.534 18.76 5.402 25.696l59.858 59.858a23.91 23.91 0 0 0 17.006 7.045c3.026 0 5.958-.574 8.696-1.635l-90.962-90.964Z" style="fill:#918f90;fill-rule:nonzero" transform="translate(30)"/>
  <path d="M203.089 129.336c70.433 0 127.732 57.301 127.732 127.733s-57.3 127.732-127.732 127.732S75.356 327.502 75.356 257.069c0-70.433 57.301-127.733 127.733-127.733Zm0 34.205c-51.572 0-93.528 41.956-93.528 93.528s41.957 93.528 93.528 93.528c51.571 0 93.528-41.956 93.528-93.528s-41.956-93.528-93.528-93.528Z" style="fill:#ff8c78" transform="translate(30)"/>
  <path d="M203.089 149.645c59.234 0 107.424 48.19 107.424 107.424 0 59.234-48.19 107.424-107.424 107.424-59.234 0-107.424-48.19-107.424-107.424 0-59.234 48.19-107.424 107.424-107.424Zm0 13.896c-51.572 0-93.528 41.956-93.528 93.528s41.957 93.528 93.528 93.528c51.571 0 93.528-41.956 93.528-93.528s-41.956-93.528-93.528-93.528Z" style="fill:#df7a6e" transform="translate(30)"/>
</svg>
