<svg style="overflow: visible; width: 2.399736111em; height: 0.597625em;" viewBox="0 0 28.796833333 7.1715" width="28.796833333pt" height="7.1715pt" xmlns="http://www.w3.org/2000/svg" xmlns:xlink="http://www.w3.org/1999/xlink" xmlns:h5="http://www.w3.org/1999/xhtml"><g transform="matrix(1 0 0 -1 0 7.1715)"><use xlink:href="#gFAEF88065306346FDCEDB45A44141576" x="0" y="0" fill="#262625" fill-rule="nonzero"/></g><g transform="matrix(1 0 0 -1 12.461166667 7.1715)"><use xlink:href="#g971808261BAF97E0695BFE67BC09D17" x="0" y="0" fill="#262625" fill-rule="nonzero"/></g><g transform="matrix(1 0 0 -1 23.546833333 7.1715)"><use xlink:href="#g9BA6738D39CCFF82C16F70AAC3C4A396" x="0" y="0" fill="#262625" fill-rule="nonzero"/></g><defs><symbol id="gFAEF88065306346FDCEDB45A44141576" overflow="visible"><path d="M 0 0m 9.072 7.1715c -0.1995 0 -0.8505 -0.0315 -1.05 -0.0315c -0.1995 0 -0.861 0.0315 -1.0605 0.0315c -0.1575 0 -0.231 -0.084 -0.231 -0.252c 0 -0.0945 0.0735 -0.147 0.231 -0.1575c 0.441 0 0.6615 -0.1365 0.6615 -0.4095c 0 -0.063 -0.0105 -0.1365 -0.021 -0.21l -1.134 -4.494l -2.2575 5.3025c -0.084 0.1995 -0.105 0.2205 -0.3675 0.2205h -1.3965c -0.252 0 -0.3465 -0.021 -0.3465 -0.252c 0 -0.105 0.1155 -0.1575 0.336 -0.1575c 0.441 0 0.6615 -0.0105 0.672 -0.042l -1.3965 -5.565c -0.0945 -0.4095 -0.336 -0.6405 -0.714 -0.714c -0.273 -0.0315 -0.588 0.0105 -0.588 -0.2835c 0 -0.105 0.063 -0.1575 0.1785 -0.1575c 0.189 0 0.84 0.0315 1.0395 0.0315c 0.1995 0 0.8715 -0.0315 1.071 -0.0315c 0.1575 0 0.231 0.084 0.231 0.252c 0 0.0945 -0.084 0.147 -0.252 0.1575c -0.4305 0.0105 -0.6405 0.147 -0.6405 0.4095c 0 0.0525 0.0105 0.126 0.0315 0.231l 1.3545 5.3655l 2.625 -6.195c 0.063 -0.147 0.147 -0.2205 0.2415 -0.2205c 0.0945 0 0.1575 0.084 0.1995 0.252l 1.4595 5.775c 0.1365 0.5355 0.4305 0.7245 1.0815 0.735c 0.147 0.0105 0.2205 0.0945 0.2205 0.2625c -0.0315 0.0945 -0.042 0.147 -0.1785 0.147Z "/></symbol><symbol id="g971808261BAF97E0695BFE67BC09D17" overflow="visible"><path d="M 0 0m 7.203 2.3835c 0.105 0.0525 0.1575 0.126 0.1575 0.2415c 0 0.1155 -0.0525 0.189 -0.1575 0.2415l -6.027 2.856c -0.0315 0.0105 -0.0735 0.021 -0.1155 0.021c -0.168 0 -0.252 -0.084 -0.252 -0.2625c 0 -0.0945 0.0525 -0.168 0.147 -0.21l 5.607 -2.646l -5.607 -2.646c -0.0945 -0.042 -0.147 -0.1155 -0.147 -0.21c 0 -0.1785 0.084 -0.2625 0.252 -0.2625c 0.042 0 0.084 0.0105 0.1155 0.021Z "/></symbol><symbol id="g9BA6738D39CCFF82C16F70AAC3C4A396" overflow="visible"><path d="M 0 0m 2.6145 -0.231c 1.4805 0 2.2155 1.197 2.2155 3.591c 0 1.6065 -0.336 2.6775 -0.9975 3.2025c -0.3675 0.2835 -0.777 0.4305 -1.2075 0.4305c -1.4805 0 -2.2155 -1.2075 -2.2155 -3.633c 0 -1.932 0.5145 -3.591 2.205 -3.591Z m 1.176 5.733c 0.0735 -0.3675 0.105 -1.0395 0.105 -2.016c 0 -0.966 -0.042 -1.68 -0.1155 -2.142c -0.1365 -0.84 -0.525 -1.26 -1.1655 -1.26c -0.2415 0 -0.483 0.0945 -0.7035 0.273c -0.2835 0.2415 -0.4515 0.735 -0.525 1.491c -0.0315 0.2625 -0.042 0.8085 -0.042 1.638c 0 0.9135 0.0315 1.554 0.084 1.9005c 0.0945 0.5775 0.2835 0.945 0.5775 1.1025c 0.231 0.126 0.4305 0.189 0.609 0.189c 0.6825 0 1.0605 -0.5565 1.176 -1.176Z "/></symbol></defs></svg>