<?xml version="1.0" standalone="no"?>
<!DOCTYPE svg PUBLIC "-//W3C//DTD SVG 20010904//EN"
 "http://www.w3.org/TR/2001/REC-SVG-20010904/DTD/svg10.dtd">
<svg version="1.0" xmlns="http://www.w3.org/2000/svg"
 width="1350.000000pt" height="1350.000000pt" viewBox="0 0 1350.000000 1350.000000"
 preserveAspectRatio="xMidYMid meet">
<metadata>
Created by potrace 1.10, written by Peter Selinger 2001-2011
</metadata>
<g transform="translate(0.000000,1350.000000) scale(0.100000,-0.100000)"
fill="#000000" stroke="none">
<path d="M4360 10399 c-114 -3 -198 -11 -220 -19 -19 -7 -53 -19 -75 -27 -238
-87 -450 -307 -548 -568 -45 -120 -52 -167 -52 -345 0 -144 3 -186 19 -235 26
-84 77 -207 93 -226 7 -8 13 -18 13 -21 0 -16 74 -115 129 -173 98 -104 212
-184 316 -222 133 -49 92 -46 915 -52 l775 -6 5 -400 c3 -220 0 -659 -6 -975
-10 -513 -9 -576 4 -587 12 -10 88 -13 304 -13 274 0 289 -1 330 -22 103 -51
168 -148 168 -249 0 -70 -25 -125 -86 -185 -74 -74 -72 -74 -729 -74 -656 0
-651 0 -727 73 -69 67 -83 99 -82 192 0 76 2 84 37 135 38 58 52 69 129 107
42 20 63 23 166 23 144 0 152 5 116 69 -56 98 -151 175 -260 211 -95 32 -226
26 -309 -14 -103 -50 -179 -118 -217 -194 -12 -24 -27 -47 -32 -51 -6 -5 -175
-11 -376 -14 -392 -5 -388 -4 -472 -61 -57 -38 -119 -166 -118 -244 1 -36 22
-110 42 -148 23 -43 91 -102 146 -126 45 -21 65 -22 430 -24 433 -3 416 0 484
-87 31 -38 33 -46 33 -117 0 -59 -4 -80 -19 -101 -41 -53 -63 -62 -170 -67
-154 -7 -205 -42 -206 -142 0 -60 16 -93 64 -131 28 -22 38 -23 350 -31 176
-4 393 -12 481 -16 174 -9 175 -9 245 47 110 88 276 125 385 86 22 -8 46 -15
52 -15 17 0 113 -59 138 -84 70 -71 108 -141 130 -243 l18 -81 168 -4 168 -3
58 -41 c32 -22 70 -59 85 -80 81 -120 34 -302 -99 -376 -53 -30 -166 -39 -488
-37 -334 2 -362 -2 -352 -44 3 -12 8 -128 12 -257 8 -310 22 -514 41 -575 60
-201 118 -320 222 -451 106 -135 249 -250 397 -322 217 -106 420 -141 640
-111 143 19 225 44 365 112 242 119 404 281 540 542 29 56 42 90 85 225 16 49
19 129 26 695 5 352 13 723 18 825 7 154 6 188 -6 200 -12 13 -76 16 -416 20
-367 5 -405 7 -436 24 -104 56 -164 183 -140 294 7 32 18 64 26 73 7 8 13 20
13 25 0 12 53 64 65 64 5 0 16 6 24 13 9 8 40 21 70 30 46 15 106 17 420 17
201 0 371 4 378 8 9 6 13 94 13 352 l2 345 -23 18 c-21 17 -49 18 -438 16
-229 0 -434 2 -456 6 -108 21 -205 143 -205 258 0 94 63 195 147 234 34 16 85
19 488 23 l450 5 5 705 c3 388 9 711 13 718 6 9 168 12 753 12 636 0 756 2
817 16 201 43 381 158 506 323 31 42 61 83 64 91 4 8 16 29 27 45 11 17 27 46
35 65 102 222 114 483 32 720 -60 175 -184 341 -347 463 -99 75 -175 112 -315
153 -56 16 -208 17 -2570 18 -1380 1 -2593 -2 -2695 -5z"/>
<path d="M8455 8128 c-54 -29 -65 -49 -65 -113 0 -54 3 -64 28 -87 50 -47 59
-48 307 -48 261 0 273 2 319 63 31 41 34 89 6 134 -36 60 -52 63 -327 63 -162
-1 -255 -4 -268 -12z"/>
<path d="M3603 8097 c-91 -34 -110 -172 -30 -229 32 -23 35 -23 331 -23 l298
0 34 39 c44 51 52 92 25 144 -14 28 -33 46 -64 61 -41 20 -59 21 -303 20 -172
0 -270 -4 -291 -12z"/>
<path d="M9345 7678 c-58 -21 -84 -47 -100 -100 -8 -29 -15 -61 -15 -72 -1
-34 -41 -73 -93 -90 -39 -13 -99 -16 -348 -16 -264 0 -303 -2 -327 -17 -66
-41 -90 -94 -79 -175 7 -51 32 -85 83 -115 l39 -22 781 -1 c777 0 782 0 830
21 26 12 71 45 99 73 132 132 111 348 -43 461 -83 61 -112 65 -474 64 -201 0
-334 -5 -353 -11z"/>
<path d="M4362 7320 c-74 -45 -91 -131 -41 -206 42 -62 48 -63 492 -69 l402
-6 45 23 c109 56 122 180 27 252 l-34 26 -429 0 c-410 0 -430 -1 -462 -20z"/>
<path d="M8924 6299 c-145 -18 -311 -147 -387 -299 -20 -42 -37 -84 -37 -95 0
-11 -6 -32 -14 -47 -23 -44 -8 -48 179 -48 192 0 239 -10 312 -64 23 -17 56
-53 74 -81 31 -47 33 -56 33 -135 0 -76 -3 -90 -28 -129 -33 -51 -72 -90 -103
-102 -30 -11 -29 -27 0 -34 13 -4 215 -5 448 -3 l424 3 45 25 c62 34 124 98
149 155 48 108 17 263 -69 345 -75 72 -108 83 -270 89 l-145 6 -16 35 c-66
144 -88 179 -144 236 -84 84 -149 119 -265 140 -82 15 -96 15 -186 3z"/>
<path d="M8917 4791 c-21 -4 -43 -13 -50 -20 -6 -6 -17 -11 -24 -11 -15 0 -64
-32 -106 -70 -27 -24 -34 -25 -180 -28 -86 -2 -157 -8 -164 -14 -9 -7 -13 -49
-13 -144 0 -153 -5 -145 100 -142 144 5 240 -79 240 -208 0 -132 -85 -204
-243 -204 -57 0 -88 -4 -95 -13 -17 -20 -8 -307 9 -318 8 -5 366 -8 834 -7
l820 3 59 30 c115 57 206 175 206 266 l0 39 -530 0 c-508 0 -532 1 -569 20
-123 62 -147 225 -48 323 55 55 100 67 242 67 136 0 138 2 109 89 -44 133
-142 243 -272 307 -68 33 -82 36 -180 39 -59 2 -124 0 -145 -4z"/>
<path d="M4405 4701 c-124 -44 -191 -91 -261 -182 -49 -64 -104 -167 -104
-196 0 -37 -20 -43 -150 -43 -98 0 -138 -4 -180 -19 -72 -26 -148 -93 -184
-165 -26 -51 -29 -68 -29 -144 1 -68 6 -98 23 -137 27 -58 107 -141 170 -175
l45 -25 828 -3 c628 -2 832 0 843 9 11 9 14 45 14 169 l0 158 -272 5 c-280 4
-284 5 -393 51 -59 25 -161 123 -189 182 -10 21 -22 47 -27 56 -15 30 -29 188
-29 336 l0 142 -27 -1 c-16 0 -50 -8 -78 -18z"/>
<path d="M4204 3200 c-11 -4 -33 -22 -47 -40 -51 -60 -26 -169 47 -204 29 -13
79 -16 316 -16 191 0 296 4 323 12 52 16 97 75 97 128 0 51 -47 115 -90 124
-48 9 -621 6 -646 -4z"/>
<path d="M8635 3203 c-58 -15 -96 -95 -75 -159 7 -22 20 -47 29 -58 38 -44 57
-46 346 -46 253 0 279 2 314 19 52 27 71 59 71 124 0 48 -4 57 -36 88 l-35 34
-297 2 c-163 0 -306 -1 -317 -4z"/>
<path d="M3646 3169 c-66 -79 11 -191 109 -159 29 10 41 21 56 56 18 40 18 46
5 73 -26 50 -44 61 -96 61 -42 0 -52 -4 -74 -31z"/>
</g>
</svg>
